<?xml version="1.0" encoding="UTF-8"?>
<svg height="128px" viewBox="0 0 128 128" width="128px" xmlns="http://www.w3.org/2000/svg" xmlns:xlink="http://www.w3.org/1999/xlink">
    <linearGradient id="a" gradientUnits="userSpaceOnUse" x1="4.621739" x2="123.378247" y1="64.288111" y2="64.288111">
        <stop offset="0" stop-color="#075e54"/>
        <stop offset="0.498031" stop-color="#098879"/>
        <stop offset="1" stop-color="#075e54"/>
    </linearGradient>
    <path d="m 123.378906 64.289062 c 0 32.703126 -26.585937 59.214844 -59.378906 59.214844 s -59.378906 -26.511718 -59.378906 -59.214844 c 0 -32.707031 26.585937 -59.21875 59.378906 -59.21875 s 59.378906 26.511719 59.378906 59.21875 z m 0 0" fill="url(#a)"/>
    <path d="m 123.378906 60.289062 c 0 32.703126 -26.585937 59.214844 -59.378906 59.214844 s -59.378906 -26.511718 -59.378906 -59.214844 c 0 -32.707031 26.585937 -59.21875 59.378906 -59.21875 s 59.378906 26.511719 59.378906 59.21875 z m 0 0" fill="#128c7e"/>
    <path d="m 64.089844 36.71875 h 30.933594 c 2.980468 0 5.390624 2.414062 5.390624 5.390625 c 0 2.980469 -2.410156 5.394531 -5.390624 5.394531 h -30.933594 c -2.980469 0 -5.394532 -2.414062 -5.394532 -5.394531 c 0 -2.976563 2.414063 -5.390625 5.394532 -5.390625 z m 0 0" fill="#cfcfcf"/>
    <path d="m 32.976562 55.996094 h 39.066407 c 2.976562 0 5.390625 2.414062 5.390625 5.390625 c 0 2.980469 -2.414063 5.394531 -5.390625 5.394531 h -39.066407 c -2.980468 0 -5.394531 -2.414062 -5.394531 -5.394531 c 0 -2.976563 2.414063 -5.390625 5.394531 -5.390625 z m 0 0" fill="#51a090"/>
    <path d="m 49.0625 75.273438 h 45.960938 c 2.980468 0 5.394531 2.414062 5.394531 5.390624 c 0 2.980469 -2.414063 5.394532 -5.394531 5.394532 h -45.960938 c -2.976562 0 -5.390625 -2.414063 -5.390625 -5.394532 c 0 -2.976562 2.414063 -5.390624 5.390625 -5.390624 z m 0 0" fill="#cfcfcf"/>
    <path d="m 64.089844 34.519531 h 30.933594 c 2.980468 0 5.390624 2.414063 5.390624 5.390625 c 0 2.980469 -2.410156 5.390625 -5.390624 5.390625 h -30.933594 c -2.980469 0 -5.394532 -2.410156 -5.394532 -5.390625 c 0 -2.976562 2.414063 -5.390625 5.394532 -5.390625 z m 0 0" fill="#ffffff"/>
    <path d="m 32.976562 53.796875 h 39.066407 c 2.976562 0 5.390625 2.414063 5.390625 5.390625 s -2.414063 5.390625 -5.390625 5.390625 h -39.066407 c -2.980468 0 -5.394531 -2.414063 -5.394531 -5.390625 s 2.414063 -5.390625 5.394531 -5.390625 z m 0 0" fill="#7ce5bc"/>
    <path d="m 49.0625 73.074219 h 45.960938 c 2.980468 0 5.394531 2.414062 5.394531 5.390625 c 0 2.976562 -2.414063 5.390625 -5.394531 5.390625 h -45.960938 c -2.976562 0 -5.390625 -2.414063 -5.390625 -5.390625 c 0 -2.976563 2.414063 -5.390625 5.390625 -5.390625 z m 0 0" fill="#ffffff"/>
</svg>
